<svg width="2212" height="691" viewBox="0 0 2212 691" fill="none" xmlns="http://www.w3.org/2000/svg">
<path d="M0.475644 681V0.857313H164.866V288.457H173.832L398.665 0.857313H592.279L351.174 304.398L596.597 681H399.993L230.622 413.659L164.866 496.684V681H0.475644ZM823.505 0.857313L947.71 215.727H953.024L1078.56 0.857313H1262.54L1057.3 340.929L1269.18 681H1080.55L953.024 463.806H947.71L820.184 681H632.879L843.763 340.929L638.192 0.857313H823.505ZM1438.89 690.631C1414.98 690.631 1394.5 682.218 1377.45 665.391C1360.62 648.565 1352.32 628.196 1352.54 604.285C1352.32 580.816 1360.62 560.779 1377.45 544.174C1394.5 527.348 1414.98 518.935 1438.89 518.935C1461.47 518.935 1481.4 527.348 1498.67 544.174C1516.16 560.779 1525.01 580.816 1525.23 604.285C1525.01 620.226 1520.81 634.727 1512.61 647.79C1504.64 660.853 1494.13 671.258 1481.06 679.007C1468.22 686.756 1454.16 690.631 1438.89 690.631ZM2211.35 0.857313V681H2071.87L1801.21 288.457H1796.89V681H1632.5V0.857313H1773.98L2041.65 392.736H2047.3V0.857313H2211.35Z" fill="black"/>
</svg>
